<?xml version="1.0" encoding="UTF-8"?>
<svg version="1.1" viewBox="0 0 24 24" xmlns="http://www.w3.org/2000/svg" xmlns:xlink="http://www.w3.org/1999/xlink">
    <!--Generated by IJSVG (https://github.com/iconjar/IJSVG)-->
    <path d="M21.6,2.2c-0.2,-0.2 -0.5,-0.2 -0.8,-0.2l-12,2c-0.4,0.1 -0.8,0.5 -0.8,1v11h-3c-1.7,0 -3,1.3 -3,3c0,1.7 1.3,3 3,3h2c1.7,0 3,-1.3 3,-3v-13.2l10,-1.7v9.9h-3c-1.7,0 -3,1.3 -3,3c0,1.7 1.3,3 3,3h2c1.7,0 3,-1.3 3,-3v-14c0,-0.3 -0.1,-0.6 -0.4,-0.8Zm-13.6,16.8c0,0.6 -0.4,1 -1,1h-2c-0.6,0 -1,-0.4 -1,-1c0,-0.6 0.4,-1 1,-1h3v1Zm12,-2c0,0.6 -0.4,1 -1,1h-2c-0.6,0 -1,-0.4 -1,-1c0,-0.6 0.4,-1 1,-1h3v1Z" fill="#F1BD93"></path>
</svg>