<?xml version="1.0" encoding="UTF-8"?>
<svg version="1.1" viewBox="0 0 24 24" xmlns="http://www.w3.org/2000/svg" xmlns:xlink="http://www.w3.org/1999/xlink">
    <!--Generated by IJSVG (https://github.com/iconjar/IJSVG)-->
    <g fill="#F66F7E">
        <path d="M12,1c-6.1,0 -11,4.9 -11,11c0,6.1 4.9,11 11,11c6.1,0 11,-4.9 11,-11c0,-6.1 -4.9,-11 -11,-11Zm0,20c-5,0 -9,-4 -9,-9c0,-5 4,-9 9,-9c5,0 9,4 9,9c0,5 -4,9 -9,9Z"></path>
        <path d="M16.6,11.2l-6,-4c-0.3,-0.2 -0.7,-0.2 -1,0c-0.4,0.1 -0.6,0.4 -0.6,0.8v8c0,0.4 0.2,0.7 0.5,0.9c0.2,0.1 0.3,0.1 0.5,0.1c0.2,0 0.4,-0.1 0.6,-0.2l6,-4c0.3,-0.2 0.4,-0.5 0.4,-0.8c0,-0.3 -0.2,-0.6 -0.4,-0.8Zm-5.6,2.9v-4.2l3.2,2.1l-3.2,2.1Z"></path>
    </g>
</svg>