<svg xmlns="http://www.w3.org/2000/svg" fill="#fff" width="32" height="32"><path d="M24.294 8.044C22.249 10.27 21 13.239 21 16.5s1.249 6.23 3.294 8.456C22.245 26.846 19.507 28 16.5 28s-5.745-1.154-7.794-3.044C10.751 22.73 12 19.761 12 16.5s-1.249-6.23-3.294-8.456C10.755 6.154 13.493 5 16.5 5s5.745 1.154 7.794 3.044zm.706.71c1.864 2.044 3 4.762 3 7.746s-1.136 5.702-3 7.746c-1.864-2.044-3-4.762-3-7.746s1.136-5.702 3-7.746zm-17 0c1.864 2.044 3 4.762 3 7.746s-1.136 5.702-3 7.746c-1.864-2.044-3-4.762-3-7.746s1.136-5.702 3-7.746zM16.5 29C23.404 29 29 23.404 29 16.5S23.404 4 16.5 4 4 9.596 4 16.5 9.596 29 16.5 29z"/></svg>