<?xml version="1.0" standalone="no"?>
<!DOCTYPE svg PUBLIC "-//W3C//DTD SVG 1.1//EN" "http://www.w3.org/Graphics/SVG/1.1/DTD/svg11.dtd" >
<svg xmlns="http://www.w3.org/2000/svg">
<defs>
  <font id="iconfonts" horiz-adv-x="1001">
    <font-face font-family="iconfonts"
      units-per-em="1001" ascent="1001"
      descent="0" />
    <missing-glyph horiz-adv-x="0" />
    <glyph glyph-name="arrow-left"
      unicode="&#xE001;"
      horiz-adv-x="1001" d="M792.4583333333334 542.2083333333333H308.6416666666667L529.6958333333333 763.2625C546.3791666666667 779.9458333333333 546.3791666666667 804.9708333333333 529.6958333333333 821.6541666666667S487.9875 838.3375 471.3041666666667 821.6541666666667L179.3458333333333 529.6958333333332C175.175 525.525 171.0041666666666 521.3541666666666 171.0041666666666 517.1833333333332C166.8333333333333 508.8416666666666 166.8333333333333 496.3291666666666 171.0041666666666 483.8166666666665C175.175 479.6458333333333 175.175 475.4749999999999 179.3458333333333 471.3041666666666L471.3041666666667 179.3458333333332C479.6458333333333 171.0041666666665 492.1583333333333 166.8333333333332 500.4999999999999 166.8333333333332S521.3541666666666 171.0041666666665 529.6958333333332 179.3458333333332C546.3791666666666 196.0291666666665 546.3791666666666 221.0541666666666 529.6958333333332 237.7374999999998L308.6416666666666 458.7916666666665H792.4583333333333C817.4833333333332 458.7916666666665 834.1666666666665 475.4749999999998 834.1666666666665 500.4999999999998S817.4833333333332 542.2083333333331 792.4583333333333 542.2083333333331z" />
    <glyph glyph-name="bell"
      unicode="&#xE002;"
      horiz-adv-x="1001" d="M592.2583333333333 162.6624999999999C571.4041666666667 175.175 546.3791666666667 166.8333333333333 533.8666666666667 145.9791666666666S496.3291666666667 120.9541666666666 475.475 129.2958333333334C467.1333333333333 133.4666666666667 462.9624999999999 137.6374999999999 458.7916666666666 145.9791666666666C446.2791666666666 166.8333333333333 421.2541666666666 171.0041666666667 400.3999999999999 162.6624999999999C379.5458333333333 150.1499999999999 375.375 125.125 383.7166666666666 104.2708333333333C396.2291666666667 83.4166666666666 408.7416666666666 70.9041666666666 429.5958333333333 58.3916666666665S471.3041666666666 41.7083333333333 492.1583333333332 41.7083333333333C533.8666666666666 41.7083333333333 575.5749999999999 62.5625 600.5999999999999 104.2708333333333C621.4541666666665 125.125 613.1125 150.15 592.2583333333332 162.6624999999999zM917.5833333333334 333.6666666666667C871.7041666666667 333.6666666666667 834.1666666666667 371.2041666666667 834.1666666666667 417.0833333333333V625.625C834.1666666666667 809.1416666666667 684.0166666666667 959.2916666666666 500.5 959.2916666666666S166.8333333333334 809.1416666666667 166.8333333333334 625.625V417.0833333333333C166.8333333333334 371.2041666666667 129.2958333333334 333.6666666666667 83.4166666666667 333.6666666666667C58.3916666666667 333.6666666666667 41.7083333333333 316.9833333333334 41.7083333333333 291.9583333333333S58.3916666666667 250.25 83.4166666666667 250.25H917.5833333333334C942.6083333333333 250.25 959.2916666666669 266.9333333333333 959.2916666666669 291.9583333333333S942.6083333333333 333.6666666666667 917.5833333333334 333.6666666666667zM229.3958333333334 333.6666666666667C241.9083333333334 358.6916666666666 250.25 387.8875000000001 250.25 417.0833333333333V625.625C250.25 763.2625 362.8625 875.875 500.5 875.875S750.75 763.2625 750.75 625.625V417.0833333333333C750.75 387.8875000000001 759.0916666666667 358.6916666666666 771.6041666666667 333.6666666666667H229.3958333333334z" />
    <glyph glyph-name="calendar"
      unicode="&#xE003;"
      horiz-adv-x="1001" d="M792.4583333333334 875.875H709.0416666666667V917.5833333333334C709.0416666666667 942.6083333333333 692.3583333333335 959.2916666666666 667.3333333333334 959.2916666666666S625.625 942.6083333333333 625.625 917.5833333333334V875.875H375.375V917.5833333333334C375.375 942.6083333333333 358.6916666666667 959.2916666666666 333.6666666666667 959.2916666666666S291.9583333333334 942.6083333333333 291.9583333333334 917.5833333333334V875.875H208.5416666666667C137.6375 875.875 83.4166666666667 821.6541666666667 83.4166666666667 750.75V166.8333333333333C83.4166666666667 95.9291666666667 137.6375 41.7083333333333 208.5416666666667 41.7083333333333H792.4583333333334C863.3625000000001 41.7083333333333 917.5833333333334 95.9291666666667 917.5833333333334 166.8333333333333V750.75C917.5833333333334 821.6541666666667 863.3625000000001 875.875 792.4583333333334 875.875zM208.5416666666667 792.4583333333333H291.9583333333334V750.75C291.9583333333334 725.725 308.6416666666667 709.0416666666666 333.6666666666667 709.0416666666666S375.375 725.725 375.375 750.75V792.4583333333333H625.625V750.75C625.625 725.725 642.3083333333334 709.0416666666666 667.3333333333334 709.0416666666666S709.0416666666667 725.725 709.0416666666667 750.75V792.4583333333333H792.4583333333334C817.4833333333335 792.4583333333333 834.1666666666667 775.775 834.1666666666667 750.75V625.625H166.8333333333334V750.75C166.8333333333334 775.775 183.5166666666667 792.4583333333333 208.5416666666667 792.4583333333333zM792.4583333333334 125.125H208.5416666666667C183.5166666666667 125.125 166.8333333333334 141.8083333333333 166.8333333333334 166.8333333333333V542.2083333333333H834.1666666666667V166.8333333333333C834.1666666666667 141.8083333333333 817.4833333333335 125.125 792.4583333333334 125.125z" />
    <glyph glyph-name="check-circle"
      unicode="&#xE004;"
      horiz-adv-x="1001" d="M917.5833333333334 579.7458333333334C892.5583333333333 579.7458333333334 875.875 563.0625 875.875 538.0374999999999V500.5C875.875 291.9583333333333 709.0416666666667 125.125 500.5 125.125C500.5 125.125 500.5 125.125 500.5 125.125C291.9583333333334 125.125 125.125 291.9583333333333 125.125 500.5S291.9583333333334 875.875 500.5 875.875C500.5 875.875 500.5 875.875 500.5 875.875C554.7208333333334 875.875 604.7708333333334 863.3625 654.8208333333333 842.5083333333333C675.675 834.1666666666666 700.7 842.5083333333333 709.0416666666667 863.3625S709.0416666666667 909.2416666666666 688.1875 917.5833333333334C629.7958333333333 942.6083333333333 567.2333333333333 959.2916666666666 500.5 959.2916666666666C500.5 959.2916666666666 500.5 959.2916666666666 500.5 959.2916666666666C246.0791666666667 959.2916666666666 41.7083333333333 754.9208333333333 41.7083333333333 500.5S246.0791666666667 41.7083333333333 500.5 41.7083333333333C500.5 41.7083333333333 500.5 41.7083333333333 500.5 41.7083333333333C754.9208333333335 41.7083333333333 959.2916666666669 246.0791666666666 959.2916666666669 500.5V538.0374999999999C959.2916666666669 563.0625 942.6083333333333 579.7458333333334 917.5833333333334 579.7458333333334zM404.5708333333334 571.4041666666667C387.8875 588.0875 362.8625 588.0875 346.1791666666666 571.4041666666667S329.4958333333333 529.6958333333332 346.1791666666666 513.0124999999999L471.3041666666667 387.8875C479.6458333333333 379.5458333333333 487.9875 375.3749999999999 500.4999999999999 375.3749999999999S521.3541666666666 379.5458333333333 529.6958333333332 387.8875L946.7791666666666 804.9708333333333C963.4624999999997 821.6541666666667 963.4624999999997 846.6791666666666 946.7791666666666 863.3625S905.0708333333332 880.0458333333332 888.3874999999999 863.3625L500.4999999999999 475.4749999999999L404.5708333333332 571.4041666666667z" />
    <glyph glyph-name="check"
      unicode="&#xE005;"
      horiz-adv-x="1001" d="M863.3625000000001 779.9458333333333C846.6791666666668 796.6291666666667 821.6541666666667 796.6291666666667 804.9708333333334 779.9458333333333L375.375 350.3499999999999L196.0291666666667 529.6958333333332C179.3458333333333 546.3791666666666 154.3208333333334 546.3791666666666 137.6375 529.6958333333332S120.9541666666667 487.9875 137.6375 471.3041666666666L346.1791666666668 262.7624999999998C354.5208333333334 254.4208333333333 362.8625000000001 250.2499999999998 375.375 250.2499999999998S396.2291666666667 254.4208333333333 404.5708333333334 262.7624999999998L863.3625000000001 721.5541666666666C880.0458333333333 738.2375 880.0458333333333 763.2624999999998 863.3625000000001 779.9458333333332z" />
    <glyph glyph-name="chevron-down"
      unicode="&#xE006;"
      horiz-adv-x="1001" d="M779.9458333333333 654.8208333333332C763.2625 671.5041666666666 738.2375000000001 671.5041666666666 721.5541666666668 654.8208333333332L500.5 433.7666666666666L279.4458333333334 654.8208333333332C262.7625 671.5041666666666 237.7375 671.5041666666666 221.0541666666667 654.8208333333332S204.3708333333334 613.1125 221.0541666666667 596.4291666666666L471.3041666666667 346.1791666666666C479.6458333333334 337.8375 492.1583333333334 333.6666666666667 500.5 333.6666666666667S521.3541666666667 337.8375 529.6958333333333 346.1791666666667L779.9458333333333 596.4291666666667C796.6291666666666 613.1125 796.6291666666666 638.1375 779.9458333333333 654.8208333333334z" />
    <glyph glyph-name="clock"
      unicode="&#xE007;"
      horiz-adv-x="1001" d="M500.5 959.2916666666666C246.0791666666667 959.2916666666666 41.7083333333333 754.9208333333333 41.7083333333333 500.5S246.0791666666667 41.7083333333333 500.5 41.7083333333333S959.2916666666669 246.0791666666666 959.2916666666669 500.5S754.9208333333335 959.2916666666666 500.5 959.2916666666666zM500.5 125.125C291.9583333333334 125.125 125.125 291.9583333333333 125.125 500.5S291.9583333333334 875.875 500.5 875.875C709.0416666666667 875.875 875.875 709.0416666666666 875.875 500.5S709.0416666666667 125.125 500.5 125.125zM684.0166666666667 454.6208333333333L542.2083333333333 525.525V750.75C542.2083333333333 775.775 525.525 792.4583333333333 500.4999999999999 792.4583333333333S458.7916666666666 775.775 458.7916666666666 750.75V500.5C458.7916666666666 483.8166666666666 467.1333333333333 471.3041666666667 483.8166666666666 462.9625L650.65 379.5458333333333C654.8208333333332 375.375 658.9916666666666 375.375 667.3333333333333 375.375C684.0166666666667 375.375 696.5291666666667 383.7166666666666 704.8708333333333 400.4S704.8708333333333 442.1083333333333 684.0166666666667 454.6208333333333z" />
    <glyph glyph-name="emoji"
      unicode="&#xE008;"
      horiz-adv-x="1001" d="M375.375 513.0125C416.86645 513.0125 450.45 552.20165 450.45 600.6S416.86645 688.1875 375.375 688.1875S300.3 648.9483 300.3 600.6S333.9336 513.0125 375.375 513.0125zM500.5 980.98C235.1349 980.98 20.02 765.8651 20.02 500.5S235.1349 20.02 500.5 20.02C765.8150499999999 20.02 980.98 235.1349 980.98 500.55005C980.98 765.8651 765.81505 980.98 500.5000000000001 980.98zM500.5 120.1700500000001C290.44015 120.1700500000001 120.12 290.4401500000002 120.12 500.55005C120.12 710.6098999999999 290.3901 880.9300499999999 500.5 880.9300499999999S880.88 710.6098999999999 880.88 500.5C880.88 290.4401500000002 710.55985 120.1700500000001 500.5000000000001 120.1700500000001zM717.7670499999999 433.6332C699.5989 442.99255 676.9762999999999 435.78535 667.3166499999999 417.6172000000001C665.6149499999998 414.3639500000001 623.8231999999999 337.8875500000001 500.5500499999998 337.8875500000001C377.8774999999999 337.8875500000001 335.8354999999999 413.6132 333.7333999999999 417.5671500000001C324.3239999999999 435.8354000000001 302.1017999999999 443.2928500000001 283.4831999999999 434.0336000000001C264.9646999999999 424.7743500000001 257.4071499999999 402.2018000000001 266.7164499999999 383.6332500000001C269.2189499999999 378.6783000000001 329.1788499999999 262.8125500000001 500.5500499999998 262.8125500000001C671.9712999999999 262.8125500000001 731.8310999999999 378.7283500000001 734.2835499999999 383.6833000000001C743.4927499999998 402.0516500000001 736.0853499999998 424.2238000000001 717.7670499999998 433.6332zM563.0625 563.0625H688.1875C708.9082 563.0625 725.7249999999999 579.8793000000001 725.7249999999999 600.6S708.9082 638.1375 688.1875 638.1375H563.0625C542.3418 638.1375 525.525 621.3207 525.525 600.6S542.3418 563.0625 563.0625 563.0625z" />
    <glyph glyph-name="games"
      unicode="&#xE009;"
      horiz-adv-x="1001" d="M759.9466875 749.373625V749.373625C695.9765312500001 679.7415625 656.90625 586.86753125 656.90625 484.859375S695.97653125 289.9771875 759.9466875 220.3451250000001C695.8514062500001 161.2235625 610.20334375 125.125 516.140625 125.125S336.42984375 161.2235625 272.3345625 220.3451250000001C336.30471875 289.9771875 375.375 382.8512187500001 375.375 484.859375S336.30471875 679.7415625 272.3345625 749.373625V749.373625C336.42984375 808.4951874999999 422.07790625 844.59375 516.140625 844.59375S695.8514062500001 808.4951875 759.9466875 749.373625zM782.03125 727.1639375C840.3395 663.2250624999999 875.875 578.2026250000001 875.875 484.859375S840.3395 306.4936875000001 782.03125 242.5548124999999C723.723 306.4936875 688.1875 391.516125 688.1875 484.859375S723.723 663.2250624999999 782.03125 727.1639375V727.1639375zM250.25 727.1639375V727.1639375V727.1639375C308.5582500000001 663.2250624999999 344.09375 578.2026250000001 344.09375 484.859375S308.5582500000001 306.4936875000001 250.25 242.5548124999999C191.94175 306.4936875 156.40625 391.516125 156.40625 484.859375S191.94175 663.2250624999999 250.25 727.1639375zM516.140625 93.84375C732.106375 93.84375 907.15625 268.8936250000001 907.15625 484.859375S732.106375 875.875 516.140625 875.875C300.174875 875.875 125.125 700.8251250000001 125.125 484.859375S300.174875 93.84375 516.140625 93.84375V93.84375z" />
    <glyph glyph-name="home"
      unicode="&#xE00A;"
      horiz-adv-x="1001" d="M900.9 658.9916666666667L525.5250000000001 950.95C508.8416666666668 963.4625 487.9875000000001 963.4625 475.4750000000001 950.95L100.1000000000001 658.9916666666667C87.5875000000001 650.6500000000001 83.4166666666668 638.1375 83.4166666666668 625.625V166.8333333333333C83.4166666666668 95.9291666666667 137.6375000000001 41.7083333333333 208.5416666666668 41.7083333333333H792.4583333333334C863.3625000000001 41.7083333333333 917.5833333333334 95.9291666666667 917.5833333333334 166.8333333333333V625.625C917.5833333333334 638.1375 913.4125 650.65 900.9 658.9916666666667zM583.9166666666667 125.125H417.0833333333334V458.7916666666666H583.9166666666667V125.125zM834.1666666666667 166.8333333333333C834.1666666666667 141.8083333333333 817.4833333333335 125.125 792.4583333333334 125.125H667.3333333333334V500.5C667.3333333333334 525.525 650.65 542.2083333333333 625.625 542.2083333333333H375.375C350.35 542.2083333333333 333.6666666666667 525.525 333.6666666666667 500.5V125.125H208.5416666666667C183.5166666666667 125.125 166.8333333333334 141.8083333333333 166.8333333333334 166.8333333333333V604.7708333333333L500.5 863.3625L834.1666666666667 604.7708333333333V166.8333333333333z" />
    <glyph glyph-name="homework"
      unicode="&#xE00B;"
      horiz-adv-x="1001" d="M125.125 250.25H291.9583333333334C304.4708333333334 250.25 312.8125 254.4208333333334 321.1541666666667 262.7625L779.9458333333333 721.5541666666667C796.6291666666666 738.2375 796.6291666666666 763.2625 779.9458333333333 779.9458333333333L613.1125 946.7791666666666C596.4291666666667 963.4625 571.4041666666667 963.4625 554.7208333333333 946.7791666666666L95.9291666666666 487.9875000000001C87.5875 479.6458333333334 83.4166666666666 471.3041666666667 83.4166666666666 458.7916666666667V291.9583333333333C83.4166666666666 266.9333333333333 100.1 250.25 125.125 250.25zM166.8333333333334 442.1083333333333L583.9166666666667 859.1916666666666L692.3583333333335 750.75L275.2750000000001 333.6666666666667H166.8333333333334V442.1083333333333zM875.875 125.125H125.125C100.1 125.125 83.4166666666667 108.4416666666667 83.4166666666667 83.4166666666666S100.1 41.7083333333333 125.125 41.7083333333333H875.875C900.9 41.7083333333333 917.5833333333334 58.3916666666665 917.5833333333334 83.4166666666666S900.9 125.125 875.875 125.125z" />
    <glyph glyph-name="image"
      unicode="&#xE00C;"
      horiz-adv-x="1001" d="M792.4583333333334 917.5833333333334H208.5416666666667C137.6375 917.5833333333334 83.4166666666667 863.3625 83.4166666666667 792.4583333333333V208.5416666666666C83.4166666666667 137.6374999999999 137.6375 83.4166666666666 208.5416666666667 83.4166666666666H792.4583333333334C863.3625000000001 83.4166666666666 917.5833333333334 137.6374999999999 917.5833333333334 208.5416666666666V792.4583333333333C917.5833333333334 863.3625 863.3625000000001 917.5833333333334 792.4583333333334 917.5833333333334zM166.8333333333334 792.4583333333333C166.8333333333334 817.4833333333333 183.5166666666667 834.1666666666666 208.5416666666667 834.1666666666666H792.4583333333334C817.4833333333335 834.1666666666666 834.1666666666667 817.4833333333333 834.1666666666667 792.4583333333333V475.475L696.5291666666667 613.1125C679.8458333333334 629.7958333333333 654.8208333333333 629.7958333333333 638.1375 613.1125L196.0291666666667 171.0041666666667C179.3458333333333 175.1750000000001 166.8333333333333 191.8583333333334 166.8333333333333 208.5416666666666V792.4583333333333zM792.4583333333334 166.8333333333333H308.6416666666667L667.3333333333334 525.525L834.1666666666667 358.6916666666666V208.5416666666666C834.1666666666667 183.5166666666666 817.4833333333335 166.8333333333333 792.4583333333334 166.8333333333333zM354.5208333333334 542.2083333333333C412.9125 542.2083333333333 458.7916666666667 588.0875 458.7916666666667 646.4791666666666S412.9125 750.75 354.5208333333334 750.75S250.25 704.8708333333334 250.25 646.4791666666666S296.1291666666667 542.2083333333333 354.5208333333334 542.2083333333333zM354.5208333333334 667.3333333333333C367.0333333333334 667.3333333333333 375.375 658.9916666666667 375.375 646.4791666666666S367.0333333333334 625.625 354.5208333333334 625.625S333.6666666666667 633.9666666666667 333.6666666666667 646.4791666666666S342.0083333333334 667.3333333333333 354.5208333333334 667.3333333333333z" />
    <glyph glyph-name="lessons"
      unicode="&#xE00D;"
      horiz-adv-x="1001" d="M917.5833333333334 917.5833333333334H667.3333333333334C600.6 917.5833333333334 538.0375 884.2166666666667 500.5 834.1666666666666C462.9625 884.2166666666667 400.4000000000001 917.5833333333334 333.6666666666667 917.5833333333334H83.4166666666667C58.3916666666667 917.5833333333334 41.7083333333333 900.9 41.7083333333333 875.875V250.25C41.7083333333333 225.2249999999999 58.3916666666667 208.5416666666666 83.4166666666667 208.5416666666666H375.375C421.2541666666667 208.5416666666666 458.7916666666667 171.0041666666667 458.7916666666667 125.125C458.7916666666667 100.0999999999999 475.475 83.4166666666666 500.5 83.4166666666666S542.2083333333334 100.0999999999999 542.2083333333334 125.125C542.2083333333334 171.0041666666667 579.7458333333334 208.5416666666666 625.625 208.5416666666666H917.5833333333334C942.6083333333333 208.5416666666666 959.2916666666669 225.2249999999999 959.2916666666669 250.25V875.875C959.2916666666669 900.9 942.6083333333333 917.5833333333334 917.5833333333334 917.5833333333334zM458.7916666666667 271.1041666666667C433.7666666666667 283.6166666666667 404.5708333333334 291.9583333333333 375.375 291.9583333333333H125.125V834.1666666666666H333.6666666666667C404.5708333333334 834.1666666666666 458.7916666666667 779.9458333333333 458.7916666666667 709.0416666666666V271.1041666666667zM875.875 291.9583333333333H625.625C596.4291666666667 291.9583333333333 567.2333333333333 283.6166666666667 542.2083333333334 271.1041666666667V709.0416666666666C542.2083333333334 779.9458333333333 596.4291666666667 834.1666666666666 667.3333333333334 834.1666666666666H875.875V291.9583333333333z" />
    <glyph glyph-name="mic"
      unicode="&#xE00E;"
      horiz-adv-x="1001" d="M500.5 333.6666666666667C592.2583333333333 333.6666666666667 667.3333333333334 408.7416666666667 667.3333333333334 500.5V834.1666666666666C667.3333333333334 925.925 592.2583333333333 1001 500.5 1001S333.6666666666667 925.925 333.6666666666667 834.1666666666666V500.5C333.6666666666667 408.7416666666667 408.7416666666668 333.6666666666667 500.5 333.6666666666667zM417.0833333333334 834.1666666666666C417.0833333333334 880.0458333333333 454.6208333333334 917.5833333333334 500.5 917.5833333333334S583.9166666666667 880.0458333333333 583.9166666666667 834.1666666666666V500.5C583.9166666666667 454.6208333333333 546.3791666666667 417.0833333333333 500.5 417.0833333333333S417.0833333333334 454.6208333333333 417.0833333333334 500.5V834.1666666666666zM792.4583333333334 625.625C767.4333333333333 625.625 750.75 608.9416666666666 750.75 583.9166666666666V500.5C750.75 362.8625 638.1375 250.25 500.5 250.25S250.25 362.8625 250.25 500.5V583.9166666666666C250.25 608.9416666666666 233.5666666666667 625.625 208.5416666666667 625.625S166.8333333333334 608.9416666666666 166.8333333333334 583.9166666666666V500.5C166.8333333333334 329.4958333333333 296.1291666666667 191.8583333333334 458.7916666666667 171.0041666666667V83.4166666666666H333.6666666666667C308.6416666666667 83.4166666666666 291.9583333333334 66.7333333333334 291.9583333333334 41.7083333333333S308.6416666666667 0 333.6666666666667 0H667.3333333333334C692.3583333333335 0 709.0416666666667 16.6833333333332 709.0416666666667 41.7083333333333S692.3583333333335 83.4166666666666 667.3333333333334 83.4166666666666H542.2083333333334V171.0041666666667C704.8708333333333 191.8583333333334 834.1666666666667 333.6666666666668 834.1666666666667 500.5000000000001V583.9166666666667C834.1666666666667 608.9416666666667 817.4833333333335 625.625 792.4583333333334 625.625z" />
    <glyph glyph-name="more"
      unicode="&#xE00F;"
      horiz-adv-x="1001" d="M583.9166666666667 500.5C583.9166666666667 454.4122916666666 546.5877083333334 417.0833333333333 500.5 417.0833333333333S417.0833333333334 454.4122916666666 417.0833333333334 500.5C417.0833333333334 546.5877083333334 454.4122916666666 583.9166666666666 500.5 583.9166666666666S583.9166666666667 546.5877083333334 583.9166666666667 500.5zM875.875 500.5C875.875 454.4122916666666 838.5460416666667 417.0833333333333 792.4583333333334 417.0833333333333S709.0416666666667 454.4122916666666 709.0416666666667 500.5C709.0416666666667 546.5877083333334 746.370625 583.9166666666666 792.4583333333334 583.9166666666666S875.875 546.5877083333334 875.875 500.5zM291.9583333333334 500.5C291.9583333333334 454.4122916666666 254.6293750000001 417.0833333333333 208.5416666666667 417.0833333333333S125.125 454.4122916666666 125.125 500.5C125.125 546.5877083333334 162.4539583333333 583.9166666666666 208.5416666666667 583.9166666666666S291.9583333333334 546.5877083333334 291.9583333333334 500.5z" />
    <glyph glyph-name="music"
      unicode="&#xE010;"
      horiz-adv-x="1001" d="M900.9 909.2416666666666C892.5583333333335 917.5833333333334 880.0458333333335 917.5833333333334 867.5333333333334 917.5833333333334L367.0333333333334 834.1666666666666C350.35 829.9958333333334 333.6666666666667 813.3125 333.6666666666667 792.4583333333333V333.6666666666667H208.5416666666667C137.6375 333.6666666666667 83.4166666666667 279.4458333333332 83.4166666666667 208.5416666666666S137.6375 83.4166666666666 208.5416666666667 83.4166666666666H291.9583333333334C362.8625 83.4166666666666 417.0833333333334 137.6374999999999 417.0833333333334 208.5416666666666V759.0916666666666L834.1666666666667 829.9958333333333V417.0833333333333H709.0416666666667C638.1375 417.0833333333333 583.9166666666667 362.8625 583.9166666666667 291.9583333333333S638.1375 166.8333333333333 709.0416666666667 166.8333333333333H792.4583333333334C863.3625000000001 166.8333333333333 917.5833333333334 221.0541666666667 917.5833333333334 291.9583333333333V875.875C917.5833333333334 888.3875 913.4125 900.9 900.9 909.2416666666666zM333.6666666666667 208.5416666666666C333.6666666666667 183.5166666666666 316.9833333333334 166.8333333333333 291.9583333333334 166.8333333333333H208.5416666666667C183.5166666666667 166.8333333333333 166.8333333333334 183.5166666666666 166.8333333333334 208.5416666666666S183.5166666666667 250.25 208.5416666666667 250.25H333.6666666666667V208.5416666666666zM834.1666666666667 291.9583333333333C834.1666666666667 266.9333333333333 817.4833333333335 250.25 792.4583333333334 250.25H709.0416666666667C684.0166666666667 250.25 667.3333333333334 266.9333333333333 667.3333333333334 291.9583333333333S684.0166666666667 333.6666666666667 709.0416666666667 333.6666666666667H834.1666666666667V291.9583333333333z" />
    <glyph glyph-name="play"
      unicode="&#xE011;"
      horiz-adv-x="1001" d="M500.5 959.2916666666666C246.0791666666667 959.2916666666666 41.7083333333333 754.9208333333333 41.7083333333333 500.5S246.0791666666667 41.7083333333333 500.5 41.7083333333333S959.2916666666669 246.0791666666666 959.2916666666669 500.5S754.9208333333335 959.2916666666666 500.5 959.2916666666666zM500.5 125.125C291.9583333333334 125.125 125.125 291.9583333333333 125.125 500.5S291.9583333333334 875.875 500.5 875.875C709.0416666666667 875.875 875.875 709.0416666666666 875.875 500.5S709.0416666666667 125.125 500.5 125.125zM692.3583333333335 533.8666666666667L442.1083333333334 700.7C429.5958333333334 709.0416666666667 412.9125000000002 709.0416666666667 400.4000000000001 700.7C383.7166666666668 696.5291666666667 375.3750000000001 684.0166666666667 375.3750000000001 667.3333333333334V333.6666666666667C375.3750000000001 316.9833333333334 383.7166666666668 304.4708333333333 396.2291666666668 296.1291666666667C404.5708333333334 291.9583333333333 408.7416666666668 291.9583333333333 417.0833333333335 291.9583333333333S433.7666666666668 296.1291666666667 442.1083333333334 300.3L692.3583333333335 467.1333333333333C704.8708333333335 475.4749999999999 709.0416666666667 487.9875 709.0416666666667 500.5S700.7 525.525 692.3583333333335 533.8666666666667zM458.7916666666667 412.9125V588.0875000000001L592.2583333333333 500.5000000000001L458.7916666666667 412.9125z" />
    <glyph glyph-name="send"
      unicode="&#xE012;"
      horiz-adv-x="1001" d="M959.2916666666669 921.7541666666666C959.2916666666669 925.925 959.2916666666669 930.0958333333334 955.1208333333332 934.2666666666667C955.1208333333332 934.2666666666667 955.1208333333332 938.4375 955.1208333333332 938.4375C955.1208333333332 942.6083333333333 950.95 946.7791666666666 946.7791666666666 950.95S938.4375 955.1208333333334 934.2666666666667 959.2916666666666C934.2666666666667 959.2916666666666 930.0958333333334 959.2916666666666 930.0958333333334 959.2916666666666C925.9249999999998 959.2916666666666 921.7541666666666 959.2916666666666 917.5833333333331 963.4625C917.5833333333331 959.2916666666666 917.5833333333331 959.2916666666666 917.5833333333331 959.2916666666666C913.4124999999998 959.2916666666666 909.2416666666666 959.2916666666666 905.0708333333332 955.1208333333334L70.9041666666665 663.1625C54.2208333333332 658.9916666666667 41.7083333333332 646.4791666666666 41.7083333333332 625.625C41.7083333333332 608.9416666666666 50.0499999999998 592.2583333333332 66.7333333333332 583.9166666666666L425.4249999999999 425.425L583.9166666666665 66.7333333333334C592.2583333333332 50.0500000000001 604.7708333333333 41.7083333333333 621.4541666666665 41.7083333333333C621.4541666666665 41.7083333333333 621.4541666666665 41.7083333333333 621.4541666666665 41.7083333333333C638.1374999999999 41.7083333333333 654.8208333333332 54.2208333333333 658.9916666666666 70.9041666666666L950.95 905.0708333333334C959.2916666666666 909.2416666666666 959.2916666666666 913.4125 959.2916666666666 921.7541666666666C959.2916666666666 917.5833333333331 959.2916666666666 917.5833333333331 959.2916666666666 921.7541666666666zM759.0916666666667 817.4833333333333L450.45 508.8416666666666L196.0291666666667 621.4541666666667L759.0916666666667 817.4833333333332zM621.4541666666668 196.0291666666666L508.8416666666666 450.4499999999999L817.4833333333335 759.0916666666666L621.4541666666668 196.0291666666666z" />
    <glyph glyph-name="speaker"
      unicode="&#xE013;"
      horiz-adv-x="1001" d="M750.75 959.2916666666666H250.25C179.3458333333333 959.2916666666666 125.125 905.0708333333334 125.125 834.1666666666666V166.8333333333333C125.125 95.9291666666667 179.3458333333333 41.7083333333333 250.25 41.7083333333333H750.75C821.6541666666667 41.7083333333333 875.875 95.9291666666667 875.875 166.8333333333333V834.1666666666666C875.875 905.0708333333334 821.6541666666667 959.2916666666666 750.75 959.2916666666666zM792.4583333333334 166.8333333333333C792.4583333333334 141.8083333333333 775.7750000000001 125.125 750.75 125.125H250.25C225.225 125.125 208.5416666666667 141.8083333333333 208.5416666666667 166.8333333333333V834.1666666666666C208.5416666666667 859.1916666666666 225.225 875.875 250.25 875.875H750.75C775.7750000000001 875.875 792.4583333333334 859.1916666666666 792.4583333333334 834.1666666666666V166.8333333333333zM500.5 625.625C383.7166666666667 625.625 291.9583333333334 533.8666666666667 291.9583333333334 417.0833333333333S383.7166666666667 208.5416666666666 500.5 208.5416666666666S709.0416666666667 300.3 709.0416666666667 417.0833333333333S617.2833333333334 625.625 500.5 625.625zM500.5 291.9583333333333C429.5958333333334 291.9583333333333 375.375 346.1791666666667 375.375 417.0833333333333S429.5958333333334 542.2083333333333 500.5 542.2083333333333S625.625 487.9875 625.625 417.0833333333333S571.4041666666667 291.9583333333333 500.5 291.9583333333333zM500.5 709.0416666666666C513.0125 709.0416666666666 521.3541666666667 713.2125 529.6958333333333 721.5541666666666S542.2083333333334 738.2375 542.2083333333334 750.75C542.2083333333334 763.2625 538.0375 771.6041666666666 529.6958333333333 779.9458333333333C513.0124999999999 796.6291666666667 483.8166666666667 796.6291666666667 471.3041666666667 779.9458333333333C462.9625 771.6041666666666 458.7916666666666 763.2625 458.7916666666666 750.75S462.9624999999999 729.8958333333333 471.3041666666667 721.5541666666666C479.6458333333333 713.2125 487.9875 709.0416666666666 500.4999999999999 709.0416666666666z" />
    <glyph glyph-name="tests"
      unicode="&#xE014;"
      horiz-adv-x="1001" d="M871.7041666666667 684.0166666666667C867.5333333333333 688.1875 867.5333333333333 692.3583333333333 863.3625000000001 696.5291666666667L613.1125 946.7791666666666C608.9416666666667 950.95 604.7708333333334 955.1208333333334 600.6 955.1208333333334C596.4291666666667 959.2916666666666 588.0875 959.2916666666666 583.9166666666666 959.2916666666666H250.25C179.3458333333333 959.2916666666666 125.1249999999999 905.0708333333334 125.1249999999999 834.1666666666666V166.8333333333333C125.1249999999999 95.9291666666667 179.3458333333333 41.7083333333333 250.25 41.7083333333333H750.75C821.6541666666667 41.7083333333333 875.875 95.9291666666667 875.875 166.8333333333333V667.3333333333333C875.875 671.5041666666666 875.875 679.8458333333333 871.7041666666667 684.0166666666667zM625.625 817.4833333333333L734.0666666666667 709.0416666666666H625.6250000000001V817.4833333333333zM750.75 125.125H250.25C225.225 125.125 208.5416666666667 141.8083333333333 208.5416666666667 166.8333333333333V834.1666666666666C208.5416666666667 859.1916666666666 225.225 875.875 250.25 875.875H542.2083333333334V667.3333333333333C542.2083333333334 642.3083333333334 558.8916666666668 625.625 583.9166666666667 625.625H792.4583333333334V166.8333333333333C792.4583333333334 141.8083333333333 775.7750000000001 125.125 750.75 125.125zM667.3333333333334 500.5H333.6666666666667C308.6416666666667 500.5 291.9583333333334 483.8166666666666 291.9583333333334 458.7916666666666S308.6416666666667 417.0833333333333 333.6666666666667 417.0833333333333H667.3333333333334C692.3583333333335 417.0833333333333 709.0416666666667 433.7666666666667 709.0416666666667 458.7916666666666S692.3583333333335 500.5 667.3333333333334 500.5zM667.3333333333334 333.6666666666667H333.6666666666667C308.6416666666667 333.6666666666667 291.9583333333334 316.9833333333334 291.9583333333334 291.9583333333333S308.6416666666667 250.25 333.6666666666667 250.25H667.3333333333334C692.3583333333335 250.25 709.0416666666667 266.9333333333333 709.0416666666667 291.9583333333333S692.3583333333335 333.6666666666667 667.3333333333334 333.6666666666667zM333.6666666666667 583.9166666666666H417.0833333333334C442.1083333333334 583.9166666666666 458.7916666666667 600.5999999999999 458.7916666666667 625.625S442.1083333333334 667.3333333333333 417.0833333333334 667.3333333333333H333.6666666666667C308.6416666666667 667.3333333333333 291.9583333333334 650.65 291.9583333333334 625.625S308.6416666666667 583.9166666666666 333.6666666666667 583.9166666666666z" />
    <glyph glyph-name="video-lessons"
      unicode="&#xE015;"
      horiz-adv-x="1001" d="M825.825 959.2916666666666H175.1750000000001C100.1000000000001 959.2916666666666 41.7083333333334 900.9 41.7083333333334 825.825V175.175C41.7083333333334 100.0999999999999 100.1 41.7083333333333 175.1750000000001 41.7083333333333H825.825C900.9 41.7083333333333 959.2916666666669 100.0999999999999 959.2916666666669 175.175V825.8249999999999C959.2916666666669 900.9 900.9 959.2916666666666 825.825 959.2916666666666zM750.75 667.3333333333333H875.875V542.2083333333333H750.75V667.3333333333333zM667.3333333333334 542.2083333333333H333.6666666666667V875.875H667.3333333333334V542.2083333333333zM250.25 542.2083333333333H125.125V667.3333333333333H250.25V542.2083333333333zM125.125 458.7916666666666H250.25V333.6666666666667H125.125V458.7916666666666zM333.6666666666667 458.7916666666666H667.3333333333334V125.125H333.6666666666667V458.7916666666666zM750.75 458.7916666666666H875.875V333.6666666666667H750.75V458.7916666666666zM875.875 825.825V750.75H750.75V875.875H825.825C855.0208333333334 875.875 875.875 855.0208333333333 875.875 825.825zM175.175 875.875H250.25V750.75H125.125V825.825C125.125 855.0208333333333 145.9791666666667 875.875 175.175 875.875zM125.125 175.175V250.25H250.25V125.125H175.175C145.9791666666667 125.125 125.125 145.9791666666666 125.125 175.175zM825.825 125.125H750.75V250.25H875.875V175.175C875.875 145.9791666666666 855.0208333333334 125.125 825.825 125.125z" />
    <glyph glyph-name="vocabulary"
      unicode="&#xE016;"
      horiz-adv-x="1001" d="M709.0416666666667 917.5833333333334H291.9583333333334C221.0541666666667 917.5833333333334 166.8333333333334 863.3625 166.8333333333334 792.4583333333333V125.125C166.8333333333334 108.4416666666667 175.175 95.9291666666667 187.6875 87.5875S216.8833333333334 83.4166666666666 229.3958333333334 91.7583333333334L496.3291666666667 283.6166666666668L763.2625 91.7583333333334C771.6041666666667 87.5875 779.9458333333333 83.4166666666667 788.2875000000001 83.4166666666667S800.8000000000002 83.4166666666667 809.1416666666668 87.5875000000002C821.6541666666668 95.9291666666668 829.9958333333335 108.4416666666668 829.9958333333335 125.1250000000001V792.4583333333335C834.1666666666669 863.3625000000002 779.9458333333334 917.5833333333334 709.0416666666669 917.5833333333334zM750.75 204.3708333333333L525.525 367.0333333333333C517.1833333333334 371.2041666666666 508.8416666666666 375.3749999999999 500.5 375.3749999999999S483.8166666666667 371.2041666666666 475.475 367.0333333333333L250.25 204.3708333333333V792.4583333333333C250.25 817.4833333333332 266.9333333333334 834.1666666666665 291.9583333333334 834.1666666666665H709.0416666666667C734.0666666666667 834.1666666666665 750.75 817.4833333333332 750.75 792.4583333333333V204.3708333333333z" />
  </font>
</defs>
</svg>
